<svg width="19" height="19" viewBox="0 0 19 19" fill="none" xmlns="http://www.w3.org/2000/svg">
<path d="M8.47861 3.99399L5.099 2.32326C3.27569 1.43068 1.78043 2.33852 1.78043 4.33729V15.6586C1.78043 16.5283 2.50517 17.2378 3.39013 17.2378H9.05077C9.47036 17.2378 9.81366 16.8945 9.81366 16.4749V6.1072C9.81366 5.30616 9.21098 4.35255 8.47861 3.99399ZM7.12066 10.9439H4.47343C4.16064 10.9439 3.90126 10.6845 3.90126 10.3718C3.90126 10.059 4.16064 9.79959 4.47343 9.79959H7.12066C7.43345 9.79959 7.69283 10.059 7.69283 10.3718C7.69283 10.6845 7.44107 10.9439 7.12066 10.9439ZM7.12066 7.89236H4.47343C4.16064 7.89236 3.90126 7.63298 3.90126 7.32019C3.90126 7.00741 4.16064 6.74802 4.47343 6.74802H7.12066C7.43345 6.74802 7.69283 7.00741 7.69283 7.32019C7.69283 7.63298 7.44107 7.89236 7.12066 7.89236Z" fill="#FB9F00"/>
<path d="M17.0613 14.2168V15.3307C17.0613 16.3835 16.2069 17.2379 15.1541 17.2379H11.6982C11.2862 17.2379 10.9582 16.9098 10.9582 16.4979V14.85C11.7745 14.9492 12.6366 14.7127 13.2545 14.2168C13.7733 14.6364 14.437 14.8882 15.1617 14.8882C15.8712 14.8882 16.5349 14.6364 17.0613 14.2168Z" fill="#FB9F00"/>
<path d="M17.0613 11.9358V11.9434C17.0003 12.9428 16.184 13.7438 15.1617 13.7438C14.1013 13.7438 13.2545 12.8818 13.2545 11.8366C13.2545 13.0038 12.1788 13.9422 10.9582 13.7057V9.60897C10.9582 9.12072 11.4083 8.75454 11.8889 8.86134L13.2545 9.1665L13.6207 9.25041L15.177 9.60134C15.5508 9.67763 15.8941 9.80732 16.1916 9.99805C16.1916 10.0057 16.1993 10.0057 16.1993 10.0057C16.2756 10.0591 16.3518 10.1201 16.4205 10.1888C16.7714 10.5397 17.0003 11.0508 17.0537 11.7985C17.0537 11.8442 17.0613 11.89 17.0613 11.9358Z" fill="#FB9F00"/>
</svg>
