<svg width="19" height="19" viewBox="0 0 19 19" fill="none" xmlns="http://www.w3.org/2000/svg">
<path d="M15.9098 9.87562V11.1725C15.9098 13.5756 14.5366 14.6055 12.4768 14.6055H5.61074C3.55094 14.6055 2.17773 13.5756 2.17773 11.1725V7.05291C2.17773 4.64981 3.55094 3.6199 5.61074 3.6199H7.67055C7.57137 3.9098 7.51797 4.23022 7.51797 4.57352V7.54881C7.51797 8.28881 7.76209 8.91437 8.19694 9.34922C8.63179 9.78407 9.25736 10.0282 9.99736 10.0282V11.0886C9.99736 11.4777 10.4398 11.7142 10.7679 11.5006L12.9726 10.0282H14.9562C15.2995 10.0282 15.6199 9.97479 15.9098 9.87562Z" fill="#008A00"/>
<path opacity="0.4" d="M17.4356 4.57351V7.5488C17.4356 8.68551 16.8558 9.53994 15.9098 9.87561C15.6199 9.97479 15.2995 10.0282 14.9562 10.0282H12.9727L10.7679 11.5006C10.4399 11.7142 9.9974 11.4777 9.9974 11.0886V10.0282C9.2574 10.0282 8.63183 9.78406 8.19698 9.34921C7.76213 8.91437 7.51801 8.28881 7.51801 7.5488V4.57351C7.51801 4.23021 7.57141 3.9098 7.67058 3.6199C8.00626 2.67391 8.86069 2.09412 9.9974 2.09412H14.9562C16.4438 2.09412 17.4356 3.08587 17.4356 4.57351Z" fill="#008A00"/>
<path opacity="0.4" d="M11.7905 16.78H9.61627V14.6058C9.61627 14.293 9.35688 14.0337 9.0441 14.0337C8.73131 14.0337 8.47193 14.293 8.47193 14.6058V16.78H6.29769C5.98491 16.78 5.72552 17.0394 5.72552 17.3522C5.72552 17.665 5.98491 17.9244 6.29769 17.9244H11.7905C12.1033 17.9244 12.3627 17.665 12.3627 17.3522C12.3627 17.0394 12.1033 16.78 11.7905 16.78Z" fill="#008A00"/>
<path d="M12.4314 6.67147C12.1109 6.67147 11.8592 6.41208 11.8592 6.0993C11.8592 5.78651 12.1186 5.52713 12.4314 5.52713C12.7441 5.52713 13.0035 5.78651 13.0035 6.0993C13.0035 6.41208 12.7441 6.67147 12.4314 6.67147Z" fill="black"/>
<path d="M14.5747 6.67147C14.2543 6.67147 14.0026 6.41208 14.0026 6.0993C14.0026 5.78651 14.2619 5.52713 14.5747 5.52713C14.8875 5.52713 15.1469 5.78651 15.1469 6.0993C15.1469 6.41208 14.8875 6.67147 14.5747 6.67147Z" fill="black"/>
<path d="M10.2797 6.67147C9.95933 6.67147 9.70758 6.41208 9.70758 6.0993C9.70758 5.78651 9.96696 5.52713 10.2797 5.52713C10.5925 5.52713 10.8519 5.78651 10.8519 6.0993C10.8519 6.41208 10.6002 6.67147 10.2797 6.67147Z" fill="black"/>
</svg>
