<svg width="19" height="19" viewBox="0 0 19 19" fill="none" xmlns="http://www.w3.org/2000/svg">
<path d="M14.8642 11.9659L15.1083 12.4618C15.2304 12.7059 15.5432 12.9348 15.8026 12.9806L16.1306 13.034C17.13 13.2018 17.3589 13.9342 16.6494 14.6513L16.3442 14.9564C16.1382 15.1624 16.0314 15.5591 16.0925 15.849L16.1306 16.0321C16.4053 17.2375 15.7644 17.7028 14.7193 17.0696L14.498 16.9323C14.231 16.7721 13.7885 16.7721 13.5215 16.9323L13.3003 17.0696C12.2475 17.7028 11.6143 17.2375 11.8889 16.0321L11.9271 15.849C11.9881 15.5668 11.8813 15.1624 11.6753 14.9564L11.3702 14.6513C10.6607 13.9265 10.8896 13.2018 11.8889 13.034L12.217 12.9806C12.484 12.9348 12.7892 12.7059 12.9112 12.4618L13.1553 11.9659C13.6283 11.0123 14.3912 11.0123 14.8642 11.9659Z" fill="#CA024F"/>
<path d="M12.6289 2.09412H6.23592C3.459 2.09412 1.80353 3.74959 1.80353 6.52651V12.9195C1.80353 15.6965 3.459 17.3519 6.23592 17.3519H10.264C10.531 17.3519 10.7217 17.0773 10.6912 16.8103C10.6607 16.5204 10.6759 16.1771 10.7675 15.7804C10.7828 15.727 10.7675 15.6659 10.7217 15.6202L10.5539 15.4523C9.90543 14.7962 9.66893 14.0028 9.8978 13.2781C10.1343 12.561 10.7904 12.0575 11.6982 11.9049L11.9271 11.8667L12.1331 11.4548C12.5527 10.6003 13.2393 10.1045 14.0098 10.1045C14.7803 10.1045 15.4669 10.6003 15.8865 11.4548L16.0009 11.6913C16.0543 11.8057 16.1611 11.882 16.2832 11.9049C16.3519 11.9201 16.4205 11.9354 16.4892 11.9507C16.7562 12.0193 17.0613 11.8057 17.0613 11.5234V6.52651C17.0613 3.74959 15.4059 2.09412 12.6289 2.09412ZM12.6823 7.40384L10.9201 9.67725C10.6988 9.95952 10.386 10.1426 10.0275 10.1808C9.67656 10.2265 9.318 10.1274 9.04336 9.90612L7.64727 8.82281C7.59387 8.77704 7.53284 8.77704 7.50232 8.78467C7.47181 8.78467 7.4184 8.79992 7.37263 8.86096L5.55695 11.2183C5.44252 11.3632 5.27468 11.4395 5.09922 11.4395C4.97715 11.4395 4.85509 11.4014 4.74829 11.3175C4.49653 11.1267 4.45076 10.7682 4.64148 10.5164L6.45716 8.1591C6.6784 7.87683 6.99118 7.69373 7.34974 7.64796C7.7083 7.60219 8.05923 7.70136 8.3415 7.9226L9.73759 9.02116C9.79099 9.06694 9.8444 9.05931 9.88254 9.05931C9.91306 9.05931 9.96646 9.04405 10.0122 8.98302L11.7745 6.7096C11.9652 6.45785 12.3238 6.41208 12.5755 6.61043C12.8349 6.80115 12.8731 7.15971 12.6823 7.40384Z" fill="#CA024F"/>
</svg>
