<svg width="19" height="19" viewBox="0 0 19 19" fill="none" xmlns="http://www.w3.org/2000/svg">
<path d="M13.4644 8.57138L7.85713 2.96413L7.19342 2.30042C6.97218 2.07918 6.60599 2.07918 6.38475 2.30042C6.16352 2.52166 6.16352 2.88785 6.38475 3.10908L7.04847 3.7728L2.75339 8.06787C2.26514 8.55612 2.00576 9.052 1.9905 9.54788C1.97525 10.0743 2.23463 10.6007 2.75339 11.1271L5.81259 14.1863C6.83486 15.2009 7.85713 15.2009 8.87178 14.1863L13.4644 9.59365C13.617 9.44108 13.6856 9.2351 13.6704 9.03674C13.6627 8.86891 13.5864 8.69344 13.4644 8.57138Z" fill="#03CFBB"/>
<path d="M12.6711 17.8101H2.7535C2.44072 17.8101 2.18134 17.5507 2.18134 17.2379C2.18134 16.9251 2.44072 16.6657 2.7535 16.6657H12.6711C12.9839 16.6657 13.2432 16.9251 13.2432 17.2379C13.2432 17.5507 12.9839 17.8101 12.6711 17.8101Z" fill="#03CFBB"/>
<path d="M15.2268 11.7298C15.0284 11.5162 14.6623 11.5162 14.4639 11.7298C14.2274 11.9892 13.0526 13.309 13.0526 14.316C13.0526 15.3078 13.8536 16.1088 14.8453 16.1088C15.8371 16.1088 16.6381 15.3078 16.6381 14.316C16.6381 13.3166 15.4633 11.9892 15.2268 11.7298Z" fill="#03CFBB"/>
</svg>
