<svg width="19" height="19" viewBox="0 0 19 19" fill="none" xmlns="http://www.w3.org/2000/svg">
<path d="M9.80664 1.98009C5.59548 1.98009 2.17773 5.39784 2.17773 9.60899C2.17773 13.8202 5.59548 17.2379 9.80664 17.2379C14.0178 17.2379 17.4355 13.8202 17.4355 9.60899C17.4355 5.39784 14.0178 1.98009 9.80664 1.98009ZM9.80664 7.1296C9.49386 7.1296 9.23447 6.87022 9.23447 6.55743C9.23447 6.24465 9.49386 5.98526 9.80664 5.98526C11.8054 5.98526 13.4304 7.61022 13.4304 9.60899C13.4304 11.6078 11.8054 13.2327 9.80664 13.2327C9.49386 13.2327 9.23447 12.9733 9.23447 12.6606C9.23447 12.3478 9.49386 12.0884 9.80664 12.0884C11.1722 12.0884 12.286 10.9746 12.286 9.60899C12.286 8.24342 11.1722 7.1296 9.80664 7.1296ZM9.80664 15.5214C6.5491 15.5214 3.89424 12.8665 3.89424 9.60899C3.89424 9.29621 4.15362 9.03683 4.46641 9.03683C4.77919 9.03683 5.03857 9.29621 5.03857 9.60899C5.03857 12.241 7.17467 14.3771 9.80664 14.3771C12.4386 14.3771 14.5747 12.241 14.5747 9.60899C14.5747 6.97702 12.4386 4.84093 9.80664 4.84093C9.49386 4.84093 9.23447 4.58154 9.23447 4.26876C9.23447 3.95597 9.49386 3.69659 9.80664 3.69659C13.0642 3.69659 15.719 6.35145 15.719 9.60899C15.719 12.8665 13.0642 15.5214 9.80664 15.5214Z" fill="#610BEF"/>
</svg>
