<svg width="20" height="20" viewBox="0 0 20 20" fill="none" xmlns="http://www.w3.org/2000/svg">
<path d="M15.6253 11.5835H14.1374C13.9394 11.5835 13.7458 11.6423 13.5812 11.7525L11.742 12.9835C11.442 13.1835 11.092 13.2752 10.7503 13.2752C10.4587 13.2752 10.167 13.2085 9.90032 13.0585C9.53496 12.8654 9.25786 12.5251 9.10179 12.1361C8.93704 11.7254 8.66065 11.3341 8.26685 11.1323C7.92851 10.9588 7.62203 10.7385 7.35866 10.4752C6.64199 9.7585 6.25033 8.75016 6.25033 7.62516V4.37516V4.16683C6.25033 3.70659 5.87723 3.3335 5.41699 3.3335C3.16699 3.3335 1.66699 4.4585 1.66699 7.0835V11.5835C1.66699 14.2085 3.16699 15.3335 5.41699 15.3335H8.54199V17.7085H6.16699C5.82533 17.7085 5.54199 17.9918 5.54199 18.3335C5.54199 18.6752 5.82533 18.9585 6.16699 18.9585H12.167C12.5087 18.9585 12.792 18.6752 12.792 18.3335C12.792 17.9918 12.5087 17.7085 12.167 17.7085H9.79199V15.3335H12.917C14.8585 15.3335 16.2415 14.4959 16.5843 12.5797C16.6816 12.036 16.2193 11.5835 15.667 11.5835H15.6253Z" fill="#6E7191"/>
<path d="M15.625 1.6665H10.2083C8.96667 1.6665 8.03333 2.29984 7.66667 3.33317C7.55833 3.64984 7.5 3.99984 7.5 4.37484V7.62484C7.5 8.43317 7.76667 9.1165 8.24167 9.5915C8.71667 10.0665 9.4 10.3332 10.2083 10.3332V11.4915C10.2083 11.9165 10.6917 12.1748 11.05 11.9415L13.4583 10.3332H15.625C16 10.3332 16.35 10.2748 16.6667 10.1665C17.7 9.79984 18.3333 8.8665 18.3333 7.62484V4.37484C18.3333 2.74984 17.25 1.6665 15.625 1.6665ZM10.5167 6.6665C10.1667 6.6665 9.89167 6.38317 9.89167 6.0415C9.89167 5.69984 10.1667 5.4165 10.5167 5.4165C10.8667 5.4165 11.1417 5.69984 11.1417 6.0415C11.1417 6.38317 10.8667 6.6665 10.5167 6.6665ZM12.8667 6.6665C12.5167 6.6665 12.2417 6.38317 12.2417 6.0415C12.2417 5.69984 12.525 5.4165 12.8667 5.4165C13.2083 5.4165 13.4917 5.69984 13.4917 6.0415C13.4917 6.38317 13.2083 6.6665 12.8667 6.6665ZM15.2083 6.6665C14.8583 6.6665 14.5833 6.38317 14.5833 6.0415C14.5833 5.69984 14.8667 5.4165 15.2083 5.4165C15.55 5.4165 15.8333 5.69984 15.8333 6.0415C15.8333 6.38317 15.55 6.6665 15.2083 6.6665Z" fill="#6E7191"/>
<path d="M18.3333 4.37484V7.62484C18.3333 8.8665 17.7 9.79984 16.6667 10.1665C16.35 10.2748 16 10.3332 15.625 10.3332H13.4583L11.05 11.9415C10.6917 12.1748 10.2083 11.9165 10.2083 11.4915V10.3332C9.4 10.3332 8.71667 10.0665 8.24167 9.5915C7.76667 9.1165 7.5 8.43317 7.5 7.62484V4.37484C7.5 3.99984 7.55833 3.64984 7.66667 3.33317C8.03333 2.29984 8.96667 1.6665 10.2083 1.6665H15.625C17.25 1.6665 18.3333 2.74984 18.3333 4.37484Z" fill="#6E7191"/>
</svg>
