<svg width="20" height="20" viewBox="0 0 20 20" fill="none" xmlns="http://www.w3.org/2000/svg">
<path d="M14.167 2.9165H5.83366C3.33366 2.9165 1.66699 4.1665 1.66699 7.08317V12.9165C1.66699 15.8332 3.33366 17.0832 5.83366 17.0832H14.167C16.667 17.0832 18.3337 15.8332 18.3337 12.9165V7.08317C18.3337 4.1665 16.667 2.9165 14.167 2.9165ZM3.12533 7.08317C3.12533 5.5915 4.34199 4.37484 5.83366 4.37484H7.08366C7.42533 4.37484 7.70866 4.65817 7.70866 4.99984C7.70866 5.3415 7.42533 5.62484 7.08366 5.62484H5.83366C5.03366 5.62484 4.37533 6.28317 4.37533 7.08317V8.33317C4.37533 8.67484 4.09199 8.95817 3.75033 8.95817C3.40866 8.95817 3.12533 8.67484 3.12533 8.33317V7.08317ZM7.08366 15.6248H5.83366C4.34199 15.6248 3.12533 14.4082 3.12533 12.9165V11.6665C3.12533 11.3248 3.40866 11.0415 3.75033 11.0415C4.09199 11.0415 4.37533 11.3248 4.37533 11.6665V12.9165C4.37533 13.7165 5.03366 14.3748 5.83366 14.3748H7.08366C7.42533 14.3748 7.70866 14.6582 7.70866 14.9998C7.70866 15.3415 7.42533 15.6248 7.08366 15.6248ZM10.0003 12.4998C8.61699 12.4998 7.50033 11.3832 7.50033 9.99984C7.50033 8.6165 8.61699 7.49984 10.0003 7.49984C11.3837 7.49984 12.5003 8.6165 12.5003 9.99984C12.5003 11.3832 11.3837 12.4998 10.0003 12.4998ZM16.8753 12.9165C16.8753 14.4082 15.6587 15.6248 14.167 15.6248H12.917C12.5753 15.6248 12.292 15.3415 12.292 14.9998C12.292 14.6582 12.5753 14.3748 12.917 14.3748H14.167C14.967 14.3748 15.6253 13.7165 15.6253 12.9165V11.6665C15.6253 11.3248 15.9087 11.0415 16.2503 11.0415C16.592 11.0415 16.8753 11.3248 16.8753 11.6665V12.9165ZM16.8753 8.33317C16.8753 8.67484 16.592 8.95817 16.2503 8.95817C15.9087 8.95817 15.6253 8.67484 15.6253 8.33317V7.08317C15.6253 6.28317 14.967 5.62484 14.167 5.62484H12.917C12.5753 5.62484 12.292 5.3415 12.292 4.99984C12.292 4.65817 12.5753 4.37484 12.917 4.37484H14.167C15.6587 4.37484 16.8753 5.5915 16.8753 7.08317V8.33317Z" fill="#6E7191"/>
</svg>
