<svg width="40" height="40" viewBox="0 0 40 40" fill="none" xmlns="http://www.w3.org/2000/svg">
<rect width="40" height="40" rx="8" fill="#FB9F00"/>
<path d="M27.3834 16.975L21.6084 12.3584C20.7167 11.6417 19.2751 11.6417 18.3917 12.35L12.6167 16.975C11.9667 17.4917 11.5501 18.5834 11.6917 19.4L12.8001 26.0334C13.0001 27.2167 14.1334 28.175 15.3334 28.175H24.6667C25.8584 28.175 27.0001 27.2084 27.2001 26.0334L28.3084 19.4C28.4417 18.5834 28.0251 17.4917 27.3834 16.975ZM20.0001 22.9167C18.8501 22.9167 17.9167 21.9834 17.9167 20.8334C17.9167 19.6834 18.8501 18.75 20.0001 18.75C21.1501 18.75 22.0834 19.6834 22.0834 20.8334C22.0834 21.9834 21.1501 22.9167 20.0001 22.9167Z" fill="#FCFCFC"/>
</svg>
