<svg width="20" height="20" viewBox="0 0 20 20" fill="none" xmlns="http://www.w3.org/2000/svg">
<path d="M16.7503 7.68336C15.242 7.68336 14.6253 6.6167 15.3753 5.30836C15.8087 4.55003 15.5503 3.58336 14.792 3.15003L13.3503 2.32503C12.692 1.93336 11.842 2.1667 11.4503 2.82503L11.3587 2.98336C10.6087 4.2917 9.37533 4.2917 8.61699 2.98336L8.52533 2.82503C8.15033 2.1667 7.30033 1.93336 6.64199 2.32503L5.20033 3.15003C4.44199 3.58336 4.18366 4.55836 4.61699 5.3167C5.37533 6.6167 4.75866 7.68336 3.25033 7.68336C2.38366 7.68336 1.66699 8.3917 1.66699 9.2667V10.7334C1.66699 11.6 2.37533 12.3167 3.25033 12.3167C4.75866 12.3167 5.37533 13.3834 4.61699 14.6917C4.18366 15.45 4.44199 16.4167 5.20033 16.85L6.64199 17.675C7.30033 18.0667 8.15033 17.8334 8.54199 17.175L8.63366 17.0167C9.38366 15.7084 10.617 15.7084 11.3753 17.0167L11.467 17.175C11.8587 17.8334 12.7087 18.0667 13.367 17.675L14.8087 16.85C15.567 16.4167 15.8253 15.4417 15.392 14.6917C14.6337 13.3834 15.2503 12.3167 16.7587 12.3167C17.6253 12.3167 18.342 11.6084 18.342 10.7334V9.2667C18.3337 8.40003 17.6253 7.68336 16.7503 7.68336ZM10.0003 12.7084C8.50866 12.7084 7.29199 11.4917 7.29199 10C7.29199 8.50836 8.50866 7.2917 10.0003 7.2917C11.492 7.2917 12.7087 8.50836 12.7087 10C12.7087 11.4917 11.492 12.7084 10.0003 12.7084Z" fill="#6E7191"/>
</svg>
