<svg width="19" height="19" viewBox="0 0 19 19" fill="none" xmlns="http://www.w3.org/2000/svg">
<path d="M12.801 8.24286H6.43853C5.53832 8.24286 5.22553 7.64018 5.75193 6.9078L8.93318 2.45252C9.307 1.9185 9.93257 1.9185 10.3064 2.45252L13.4876 6.9078C14.014 7.64018 13.7012 8.24286 12.801 8.24286Z" fill="#005BD4"/>
<path d="M13.8838 14.3004H5.35466C4.1493 14.3004 3.73733 13.4994 4.44682 12.5229L7.49076 8.24304H11.7477L14.7916 12.5229C15.5011 13.4994 15.0891 14.3004 13.8838 14.3004Z" fill="#005BD4"/>
<path d="M10.1917 14.3004V17.3519C10.1917 17.6647 9.93232 17.9241 9.61953 17.9241C9.30675 17.9241 9.04736 17.6647 9.04736 17.3519V14.3004H10.1917Z" fill="#005BD4"/>
</svg>
